          <svg
            xmlns="http://www.w3.org/2000/svg"
            xmlns:xlink="http://www.w3.org/1999/xlink"
            viewBox="0,0,255.9919,255.9919"
            width="30px"
            height="30px"
            fill-rule="nonzero"
          >
            <g
              fill="none"
              fill-rule="nonzero"
              stroke="none"
              stroke-width="none"
              stroke-linecap="none"
              stroke-linejoin="none"
              stroke-miterlimit="10"
              stroke-dasharray=""
              stroke-dashoffset="0"
              font-family="none"
              font-weight="none"
              font-size="none"
              text-anchor="none"
              style="mix-blend-mode: normal"
            >
              <g transform="scale(2.56,2.56)">
                <path
                  d="M52,100.011c-11.292,0 -17.968,-10.913 -20.313,-15.604c-0.655,-1.309 -3.776,-4.397 -5.687,-6.407c-2.141,-2.252 -4.239,-2.654 -5.699,-4.599c-4.736,-6.315 -7.301,-13.427 -7.301,-32.901c0,-26.875 25.826,-38.5 39,-38.5c13.174,0 39,11.625 39,38.5c0,19.474 -2.565,26.586 -7.3,32.899c-1.446,1.928 -3.412,3.978 -5.494,6.147c-2.05,2.135 -5.139,3.354 -5.892,4.86c-1.83,3.661 -8.704,15.605 -20.314,15.605z"
                  fill-opacity="0"
                  fill="#000000"
                  stroke="none"
                  stroke-width="1"
                  stroke-linecap="butt"
                  stroke-linejoin="miter"
                  opacity="0.35"
                ></path>
                <path
                  d="M50,98.011c-11.292,0 -17.968,-10.913 -20.313,-15.604c-0.654,-1.309 -3.853,-2.673 -5.764,-4.683c-2.141,-2.252 -4.162,-4.378 -5.622,-6.324c-4.736,-6.314 -7.301,-13.426 -7.301,-32.9c0,-26.875 25.826,-38.5 39,-38.5c13.174,0 39,11.625 39,38.5c0,19.474 -2.565,26.586 -7.3,32.899c-1.446,1.928 -3.412,3.978 -5.494,6.147c-2.05,2.135 -5.139,3.354 -5.892,4.86c-1.83,3.661 -8.704,15.605 -20.314,15.605z"
                  fill="#f2f2f2"
                  stroke="none"
                  stroke-width="1"
                  stroke-linecap="butt"
                  stroke-linejoin="miter"
                ></path>
                <path
                  d="M50,6.5c-10.267,0 -32.5,9 -32.5,32c0,20 3,25 6,29c3,4 11,10 12,14c1,4 7,10.011 14.5,10.011c7.5,0 13.5,-6.011 14.5,-10.011c1,-4 9,-10 12,-14c3,-4 6,-9 6,-29c0,-23 -22.233,-32 -32.5,-32z"
                  fill-opacity="0.5098"
                  fill="#767676"
                  stroke="none"
                  stroke-width="1"
                  stroke-linecap="butt"
                  stroke-linejoin="miter"
                ></path>
                <path
                  d="M50,6.5c-10.267,0 -32.5,9 -32.5,32c0,20 3,25 6,29c3,4 10.156,10.312 12,14c2,4 7,10.011 14.5,10.011c7.5,0 12.656,-6.323 14.5,-10.011c2,-4 9,-10 12,-14c3,-4 6,-9 6,-29c0,-23 -22.233,-32 -32.5,-32z"
                  fill="none"
                  stroke="#020202"
                  stroke-width="3"
                  stroke-linecap="round"
                  stroke-linejoin="round"
                ></path>
                <path
                  d="M23.069,45.223c2.958,-2.721 7.18,-3.639 11.149,-3.599c6.957,0.085 12.968,6.161 13.714,12.91c-1.484,-2.143 -2.987,-4.096 -4.763,-5.695c-5.271,-5.199 -13.181,-5.354 -20.1,-3.616z"
                  fill="#020202"
                  stroke="none"
                  stroke-width="1"
                  stroke-linecap="butt"
                  stroke-linejoin="miter"
                  opacity="0.35"
                ></path>
                <path
                  d="M76.931,45.223c-2.958,-2.721 -7.18,-3.639 -11.149,-3.599c-6.957,0.085 -12.968,6.161 -13.714,12.91c1.484,-2.143 2.987,-4.096 4.763,-5.695c5.271,-5.199 13.181,-5.354 20.1,-3.616z"
                  fill="#020202"
                  stroke="none"
                  stroke-width="1"
                  stroke-linecap="butt"
                  stroke-linejoin="miter"
                  opacity="0.35"
                ></path>
                <path
                  d="M43.703,63.862c-2.99,5.153 -11.332,5.061 -14.368,-0.002c0,0 3.509,1.139 7.058,1.14c3.634,0.001 7.31,-1.138 7.31,-1.138z"
                  fill="#020202"
                  stroke="none"
                  stroke-width="1"
                  stroke-linecap="butt"
                  stroke-linejoin="miter"
                  opacity="0.35"
                ></path>
                <path
                  d="M70.703,63.862c-2.99,5.153 -11.332,5.061 -14.368,-0.002c0,0 3.509,1.139 7.058,1.14c3.634,0.001 7.31,-1.138 7.31,-1.138z"
                  fill="#020202"
                  stroke="none"
                  stroke-width="1"
                  stroke-linecap="butt"
                  stroke-linejoin="miter"
                  opacity="0.35"
                ></path>
                <path
                  d="M23.961,50.955c0,0 1.753,-2.966 9.101,-2.966c7.348,0 10.977,8.011 10.977,12.011c0,0 -5.331,3.688 -13,1c-6.606,-2.316 -7.078,-10.045 -7.078,-10.045z"
                  fill="#020202"
                  stroke="none"
                  stroke-width="1"
                  stroke-linecap="butt"
                  stroke-linejoin="miter"
                ></path>
                <path
                  d="M76.039,50.955c0,0 -1.753,-2.966 -9.101,-2.966c-7.348,0 -10.977,8.011 -10.977,12.011c0,0 5.331,3.688 13,1c6.606,-2.316 7.078,-10.045 7.078,-10.045z"
                  fill="#020202"
                  stroke="none"
                  stroke-width="1"
                  stroke-linecap="butt"
                  stroke-linejoin="miter"
                ></path>
                <path
                  d="M48.5,65v4.046c0,0.961 -0.942,1.64 -1.853,1.336v0c-0.712,-0.237 -1.128,-0.993 -0.913,-1.712c0.313,-1.05 1.047,-2.524 2.766,-3.67z"
                  fill="#020202"
                  stroke="none"
                  stroke-width="1"
                  stroke-linecap="butt"
                  stroke-linejoin="miter"
                ></path>
                <path
                  d="M51.5,65v4.046c0,0.961 0.942,1.64 1.853,1.336v0c0.712,-0.237 1.128,-0.993 0.913,-1.712c-0.313,-1.05 -1.047,-2.524 -2.766,-3.67z"
                  fill="#020202"
                  stroke="none"
                  stroke-width="1"
                  stroke-linecap="butt"
                  stroke-linejoin="miter"
                ></path>
                <path
                  d="M57.248,79.668c-2.417,-3.626 -7.052,-3.668 -7.248,-3.668c-0.196,0 -4.831,0.042 -7.248,3.668c0,0 3.956,-0.668 7.248,-0.668c3.146,0 7.248,0.668 7.248,0.668z"
                  fill="#020202"
                  stroke="none"
                  stroke-width="1"
                  stroke-linecap="butt"
                  stroke-linejoin="miter"
                  opacity="0.35"
                ></path>
                <circle
                  cx="64"
                  cy="53"
                  r="2"
                  fill="#e7e7e7"
                  stroke="none"
                  stroke-width="1"
                  stroke-linecap="butt"
                  stroke-linejoin="miter"
                ></circle>
                <circle
                  cx="36"
                  cy="53"
                  r="2"
                  fill="#e7e7e7"
                  stroke="none"
                  stroke-width="1"
                  stroke-linecap="butt"
                  stroke-linejoin="miter"
                ></circle>
                <path
                  d="M29.632,15.984c-7.177,8.645 -2.608,16.84 -5.672,21.791c-4.393,7.101 -4.43,12.194 -3.949,17.225c-2.5,-0.994 -2.068,-8.891 -2.011,-13c0.078,-5.577 1,-12 1,-12l3.539,-9.373c0,0 5.278,-5.443 7.093,-4.643z"
                  fill="#020202"
                  stroke="none"
                  stroke-width="1"
                  stroke-linecap="butt"
                  stroke-linejoin="miter"
                  opacity="0.35"
                ></path>
                <path
                  d="M70.319,15.984c7.177,8.645 2.608,16.84 5.672,21.791c4.392,7.101 4.429,12.194 3.949,17.225c2.5,-0.994 2.068,-8.891 2.011,-13c-0.078,-5.577 -1,-12 -1,-12l-3.539,-9.373c0,0 -5.278,-5.443 -7.093,-4.643z"
                  fill="#020202"
                  stroke="none"
                  stroke-width="1"
                  stroke-linecap="butt"
                  stroke-linejoin="miter"
                  opacity="0.35"
                ></path>
              </g>
            </g>
          </svg>