<?xml version="1.0" standalone="no"?>
<!DOCTYPE svg PUBLIC "-//W3C//DTD SVG 20010904//EN"
 "http://www.w3.org/TR/2001/REC-SVG-20010904/DTD/svg10.dtd">
<svg version="1.0" xmlns="http://www.w3.org/2000/svg"
 width="512.000000pt" height="512.000000pt" viewBox="0 0 512.000000 512.000000"
 preserveAspectRatio="xMidYMid meet">
<metadata>
Created by potrace 1.14, written by Peter Selinger 2001-2017
</metadata>
<g transform="translate(0.000000,512.000000) scale(0.100000,-0.100000)"
fill="#000000" stroke="none">
<path d="M1295 4803 c-11 -1 -65 -4 -120 -7 -55 -2 -111 -6 -125 -9 -70 -13
-151 -39 -208 -67 -34 -16 -67 -30 -72 -30 -6 0 -10 -4 -10 -8 0 -5 -10 -14
-22 -21 -40 -21 -62 -35 -87 -56 -43 -37 -113 -108 -128 -132 -8 -12 -20 -20
-26 -16 -5 3 -7 1 -4 -4 4 -6 -4 -22 -18 -37 -13 -14 -22 -26 -20 -26 2 0 -11
-26 -29 -57 -18 -32 -39 -76 -46 -98 -7 -22 -17 -49 -23 -60 -6 -11 -12 -29
-13 -40 -1 -11 -5 -31 -8 -45 -13 -47 -18 -105 -17 -168 2 -40 -3 -70 -11 -80
-7 -9 -8 -13 -2 -9 8 5 12 -349 12 -1346 1 -743 3 -1364 5 -1379 3 -16 0 -28
-7 -28 -7 0 -6 -3 1 -8 7 -5 14 -20 15 -35 1 -15 6 -27 10 -27 4 0 8 -5 8 -11
0 -5 -6 -7 -12 -3 -9 5 -8 2 1 -9 8 -10 11 -20 8 -23 -3 -4 1 -13 9 -21 11
-12 12 -18 3 -29 -10 -12 -9 -13 5 -8 12 4 15 2 10 -9 -3 -8 -1 -18 5 -22 6
-3 11 -13 11 -21 0 -9 -5 -12 -12 -8 -7 4 -8 3 -4 -5 4 -6 11 -9 16 -6 11 7
33 -32 25 -45 -3 -6 -1 -10 5 -10 7 0 10 -7 7 -14 -4 -10 -1 -13 7 -10 14 5
40 -42 31 -57 -3 -5 1 -6 9 -3 15 6 22 -11 17 -38 0 -5 3 -7 8 -5 5 1 41 -29
79 -68 83 -84 118 -115 130 -115 4 0 18 -9 30 -20 12 -11 25 -20 29 -20 4 0 8
-7 9 -16 1 -9 6 -19 10 -22 4 -4 4 1 1 10 -8 23 16 24 37 2 9 -9 23 -17 30
-18 8 -1 22 -8 32 -16 11 -9 15 -10 10 -3 -10 17 6 16 30 -2 10 -8 28 -15 40
-15 11 0 24 -3 28 -7 6 -6 29 -11 66 -14 8 -1 21 -7 29 -13 11 -8 13 -8 7 1
-5 9 -2 11 8 7 9 -3 13 -11 9 -17 -4 -6 -1 -7 8 -1 24 15 42 13 56 -4 11 -14
12 -14 8 -1 -6 17 12 21 53 13 14 -3 20 -9 16 -16 -4 -7 -3 -8 5 -4 6 4 9 12
6 17 -4 5 0 9 9 9 8 0 17 -6 19 -12 4 -10 6 -9 6 1 1 11 4 11 18 0 11 -10 14
-10 9 -1 -5 8 0 12 15 12 19 0 20 -2 8 -17 -10 -14 -8 -13 10 2 l24 20 -6 -20
c-6 -17 -5 -18 5 -4 15 18 139 23 150 5 5 -8 8 -8 8 0 0 13 128 16 136 3 3 -5
11 -9 17 -9 7 0 6 4 -3 10 -12 8 -10 10 8 10 16 0 21 -4 16 -12 -6 -10 -4 -10
7 -2 21 16 162 18 153 1 -5 -9 -4 -9 7 1 7 6 25 12 40 12 15 0 30 -6 32 -12 4
-10 6 -9 6 1 1 11 4 11 18 0 11 -10 14 -10 9 -2 -4 8 -2 13 8 13 8 0 17 -6 19
-12 4 -10 6 -9 6 1 1 11 4 11 18 0 11 -10 14 -10 9 -1 -5 8 0 12 15 12 19 0
20 -2 8 -17 -10 -14 -8 -13 10 2 l24 20 -6 -20 c-6 -17 -5 -18 5 -4 15 18 139
23 150 5 5 -7 8 -6 8 3 0 11 3 11 17 0 12 -10 15 -10 9 -1 -5 9 1 12 24 10 22
-2 29 -6 25 -18 -4 -13 -3 -13 7 1 15 18 79 21 90 5 5 -7 8 -7 8 -1 0 15 43
16 52 2 6 -9 8 -8 8 2 0 11 3 11 17 0 9 -8 14 -9 10 -2 -5 8 9 11 48 11 31 0
58 -5 61 -9 3 -5 11 -9 17 -9 7 0 6 4 -3 10 -12 8 -10 10 8 10 16 0 21 -4 16
-12 -6 -10 -4 -10 7 -2 17 14 107 16 115 3 3 -5 11 -9 17 -9 7 0 6 4 -3 10
-12 8 -10 10 8 10 16 0 21 -4 16 -12 -6 -10 -4 -10 7 0 7 6 25 12 40 12 15 0
30 -6 32 -12 4 -10 6 -9 6 1 1 11 4 11 18 0 11 -10 14 -10 9 -1 -4 7 -2 12 8
12 8 0 17 -6 19 -12 4 -10 6 -9 6 1 1 11 4 11 18 0 12 -10 15 -10 9 -1 -5 9 1
12 24 10 22 -2 29 -6 25 -18 -4 -13 -4 -13 7 1 15 18 139 23 150 5 6 -8 8 -8
8 0 0 6 18 11 40 11 33 0 40 -3 35 -16 -5 -15 -4 -15 7 0 15 18 79 21 90 5 5
-7 8 -7 8 -1 0 18 43 15 57 -3 11 -14 12 -14 8 -1 -5 13 5 16 60 16 36 1 68
-3 71 -8 3 -5 11 -9 17 -9 7 0 6 4 -3 10 -12 8 -10 10 8 10 16 0 21 -4 16 -12
-6 -10 -4 -10 7 -2 20 15 162 18 153 2 -5 -8 -3 -8 7 -2 16 11 141 15 135 5
-3 -4 4 -7 14 -7 10 0 16 4 14 8 -3 4 15 6 40 4 25 -2 43 1 40 5 -8 13 10 11
25 -4 9 -8 12 -8 7 0 -7 14 8 20 104 39 14 3 27 9 28 15 2 5 8 9 13 9 6 0 5
-9 -1 -22 -8 -17 -5 -15 11 5 17 22 24 25 30 15 5 -8 9 -9 9 -2 0 7 12 19 26
29 24 16 27 16 47 -1 12 -10 16 -12 10 -4 -15 16 -18 44 -4 36 5 -3 14 1 21 9
6 7 19 11 27 8 10 -4 14 -2 10 4 -3 5 5 16 18 23 14 7 25 17 25 22 0 4 5 8 11
8 6 0 35 25 65 55 30 31 59 53 64 50 5 -3 8 0 5 7 -7 18 43 74 63 70 13 -2 14
-1 4 6 -10 7 -9 17 9 48 13 21 28 42 34 46 5 4 6 8 2 8 -4 0 -3 9 3 20 6 11
15 18 21 14 6 -3 7 4 3 20 -4 16 -2 26 5 26 6 0 10 3 10 7 -4 22 2 33 13 27 8
-5 9 -2 5 9 -3 9 0 36 7 59 16 54 16 55 16 74 0 9 5 12 13 8 9 -6 9 -5 0 8 -7
8 -10 17 -7 21 3 3 6 154 6 336 0 242 4 329 12 324 8 -5 8 -3 0 8 -17 20 -17
1958 0 1978 8 11 8 13 0 8 -15 -9 -15 173 0 192 8 11 8 13 -2 7 -9 -5 -12 1
-12 21 0 27 -6 93 -10 103 -1 3 -2 9 -1 14 1 4 -2 13 -7 20 -4 6 -9 25 -11 41
-1 17 -7 34 -12 39 -5 6 -9 18 -9 28 0 10 -4 18 -10 18 -5 0 -10 9 -10 21 0
21 -35 92 -57 117 -7 7 -13 20 -13 28 0 8 -5 14 -10 14 -6 0 -14 8 -17 17 -4
9 -14 24 -22 33 -9 9 -28 31 -42 47 -22 27 -67 67 -137 125 -28 23 -161 98
-173 98 -6 0 -29 9 -51 20 -23 11 -43 18 -46 16 -2 -3 -16 0 -31 6 -48 18 -65
20 -201 25 -137 4 -2598 10 -2635 6z"/>
<path d="M915 351 c-3 -5 -2 -12 3 -15 5 -3 9 1 9 9 0 17 -3 19 -12 6z"/>
<path d="M1576 298 c3 -5 10 -6 15 -3 13 9 11 12 -6 12 -8 0 -12 -4 -9 -9z"/>
<path d="M1838 303 c7 -3 16 -2 19 1 4 3 -2 6 -13 5 -11 0 -14 -3 -6 -6z"/>
<path d="M3256 298 c3 -5 10 -6 15 -3 13 9 11 12 -6 12 -8 0 -12 -4 -9 -9z"/>
<path d="M3758 303 c7 -3 16 -2 19 1 4 3 -2 6 -13 5 -11 0 -14 -3 -6 -6z"/>
<path d="M3876 293 c-6 -14 -5 -15 5 -6 7 7 10 15 7 18 -3 3 -9 -2 -12 -12z"/>
</g>
</svg>
